<svg width="30" height="30" viewBox="0 0 30 30" xmlns="http://www.w3.org/2000/svg">
<path d="M7.46125 8.28125L6.6275 4.53125H4.21625"  stroke-linecap="round" stroke-linejoin="round"/>
<path fill-rule="evenodd" clip-rule="evenodd" d="M9.66374 18.5438L7.46124 8.28125H23.2837C24.08 8.28125 24.6725 9.015 24.5062 9.79375L22.6287 18.5438C22.505 19.12 21.9962 19.5312 21.4062 19.5312H10.885C10.2962 19.5312 9.78749 19.12 9.66374 18.5438Z"  stroke-linecap="round" stroke-linejoin="round"/>
<path d="M21.8313 24.0625C21.5725 24.0625 21.3625 24.2725 21.365 24.5312C21.365 24.79 21.575 25 21.8338 25C22.0925 25 22.3025 24.79 22.3025 24.5312C22.3013 24.2725 22.0913 24.0625 21.8313 24.0625"  stroke-linecap="round" stroke-linejoin="round"/>
<path d="M11.07 24.0625C10.8113 24.0625 10.6013 24.2725 10.6038 24.5312C10.6025 24.79 10.8125 25 11.0713 25C11.33 25 11.54 24.79 11.54 24.5312C11.54 24.2725 11.33 24.0625 11.07 24.0625"  stroke-linecap="round" stroke-linejoin="round"/>
</svg>
