<svg width="22" height="27" viewBox="0 0 22 27" fill="none" xmlns="http://www.w3.org/2000/svg">
<path d="M21.4124 5.13121L21.9999 5.00743V4.38477C21.9999 2.24263 20.3222 0.5 18.2599 0.5H15.096C14.9862 0.579147 13.6141 2.39299 10.9999 2.39299C8.38623 2.39299 7.01391 0.579346 6.90371 0.5H3.73988C1.67757 0.5 -0.00012207 2.24263 -0.00012207 4.38477V5.00743L0.587308 5.13121C1.94665 5.41785 2.93321 6.67349 2.93321 8.11719C2.93321 9.59758 1.9266 10.9199 0.59151 11.1928L-0.00012207 11.3138V26.5H21.9999V11.3289L21.4096 11.2071C20.0739 10.931 19.0665 9.60274 19.0665 8.11719C19.0665 6.67349 20.0531 5.41785 21.4124 5.13121ZM10.9999 3.91643C12.1749 3.91643 13.3055 3.61591 14.3102 3.04977L13.1999 8.85471V24.2148C13.1999 24.4818 13.2446 24.7381 13.3259 24.9766H8.67384C8.75519 24.7381 8.79988 24.4818 8.79988 24.2148V8.85471L7.68957 3.04977C8.69427 3.61591 9.82483 3.91643 10.9999 3.91643ZM14.6665 20.4062H17.5999V21.9297H14.6665V20.4062ZM17.5999 18.8828H14.6665V17.3594H17.5999V18.8828ZM7.33321 18.8828H4.39988V17.3594H7.33321V18.8828ZM4.39988 20.4062H7.33321V21.9297H4.39988V20.4062ZM1.46654 24.9766V12.5173C3.1746 11.8782 4.39988 10.0905 4.39988 8.11719C4.39988 6.18988 3.22654 4.48534 1.52976 3.83093C1.77019 2.79527 2.66986 2.02344 3.73988 2.02344H5.99793L7.33321 9.00467V12.7891H3.66654V14.3125H7.33321V15.8359H2.93321V23.4531H7.33321V24.2148C7.33321 24.6348 7.00417 24.9766 6.59988 24.9766H1.46654ZM18.5952 11.0718C19.1105 11.7463 19.7842 12.2505 20.5332 12.5306V24.9766H15.3999C14.9956 24.9766 14.6665 24.6348 14.6665 24.2148V23.4531H19.0665V15.8359H14.6665V14.3125H18.3332V12.7891H14.6665V9.00467L16.0018 2.02344H18.2599C19.3299 2.02344 20.2296 2.79527 20.47 3.83093C18.7732 4.48534 17.5999 6.18988 17.5999 8.11719C17.5999 9.1824 17.9534 10.2318 18.5952 11.0718Z" fill="#1534C8"/>
</svg>
