<svg width="28" height="27" viewBox="0 0 28 27" fill="none" xmlns="http://www.w3.org/2000/svg">
<path d="M3.62308 18.7257L3.89272 20.0738L5.44468 19.7634L4.59495 15.5152L1.87069 18.2397C0.633701 19.4768 0.633495 21.4792 1.87069 22.7165C2.51195 23.3578 3.38413 23.6944 4.30945 23.637C4.25486 24.5125 4.56055 25.4066 5.22818 26.0743C6.46229 27.3085 8.47052 27.3087 9.70483 26.0743L12.4291 23.3498L8.1813 22.5002L7.87087 24.0523L9.21868 24.3219L8.58567 24.955C7.96851 25.5722 6.9645 25.5722 6.34734 24.955C5.73039 24.338 5.73019 23.3339 6.34714 22.7167C6.34734 22.7167 6.34734 22.7165 6.34734 22.7165L9.76457 19.299C12.5906 21.1226 16.8192 18.9591 19.2174 16.5609C21.341 14.437 23.2026 11.0625 22.4595 8.26079C22.9245 8.17324 23.3521 7.94889 23.6941 7.60692C24.4235 6.87744 24.5776 5.78744 24.1573 4.9051L27.9429 1.11925L26.8237 0L23.0392 3.78502C22.7234 3.63381 22.3755 3.55388 22.0152 3.55388C21.3812 3.55388 20.785 3.80088 20.3366 4.24937C19.987 4.59897 19.7697 5.03159 19.6842 5.4844C16.8683 4.73658 13.4916 6.61807 11.3835 8.72617C8.98612 11.1239 6.82236 15.3529 8.64582 18.1796L5.22818 21.5975C4.60979 22.2159 3.60845 22.2161 2.99006 21.5975C2.37146 20.9788 2.37126 19.9776 2.98985 19.359L3.62308 18.7257ZM10.2643 17.68C9.61543 17.0313 9.4323 16.0031 9.64818 14.8255L13.1177 18.2951C11.8921 18.5178 10.8889 18.3046 10.2643 17.68ZM21.4557 5.36862C21.7649 5.0594 22.2655 5.05919 22.5749 5.36862C22.8835 5.67702 22.8835 6.17927 22.5749 6.48787C22.2657 6.79709 21.7649 6.79709 21.4557 6.48787C21.1471 6.17927 21.1471 5.67702 21.4557 5.36862ZM20.3366 7.60692C20.9611 8.23154 21.1743 9.23501 20.9517 10.4606L17.4823 6.99095C18.4956 6.80533 19.6106 6.88115 20.3366 7.60692ZM12.5026 9.84542C13.5285 8.81949 14.6755 8.03501 15.788 7.53502L20.4122 12.1597C19.9038 13.2981 19.1097 14.4302 18.0982 15.4417C17.0868 16.4532 15.9549 17.2474 14.8166 17.7558L10.192 13.1309C10.6919 12.0182 11.4768 10.8714 12.5026 9.84542Z" fill="#1534C8"/>
</svg>
