<?xml version="1.0" encoding="utf-8"?>
<!-- Generator: Adobe Illustrator 25.1.0, SVG Export Plug-In . SVG Version: 6.00 Build 0)  -->
<svg version="1.1" id="Camada_1" xmlns="http://www.w3.org/2000/svg" xmlns:xlink="http://www.w3.org/1999/xlink" x="0px" y="0px"
	 viewBox="0 0 47 50" style="enable-background:new 0 0 47 50;" xml:space="preserve">
<style type="text/css">
	.st0{fill:none;stroke:#0E2294;stroke-width:1.5;stroke-linecap:round;stroke-linejoin:round;}
</style>
<path class="st0" d="M20.2,27.8l5.6-5.6"/>
<path class="st0" d="M26.1,27.6c0.1,0.1,0.1,0.3,0,0.5c-0.1,0.1-0.3,0.1-0.5,0c-0.1-0.1-0.1-0.3,0-0.5
	C25.7,27.5,25.9,27.5,26.1,27.6"/>
<path class="st0" d="M20.4,21.9c0.1,0.1,0.1,0.3,0,0.5c-0.1,0.1-0.3,0.1-0.5,0c-0.1-0.1-0.1-0.3,0-0.5
	C20.1,21.8,20.3,21.8,20.4,21.9"/>
<path class="st0" d="M12.3,15.4V35c0,1,1,1.6,1.9,1.2l1-0.5c0.4-0.2,0.8-0.2,1.2,0l2.4,1.2c0.4,0.2,0.8,0.2,1.2,0l2.4-1.2
	c0.4-0.2,0.8-0.2,1.2,0l2.4,1.2c0.4,0.2,0.8,0.2,1.2,0l2.4-1.2c0.4-0.2,0.8-0.2,1.2,0l1,0.5c0.9,0.4,1.9-0.2,1.9-1.2V15.4
	c0-1.3-1.1-2.4-2.4-2.4H14.7C13.4,13,12.3,14.1,12.3,15.4z"/>
</svg>
