<svg width="13" height="23" viewBox="0 0 13 23" fill="none" xmlns="http://www.w3.org/2000/svg">
<path d="M12.9429 0.12207H0.942871V5.1094L2.25711 6.42363C1.43523 7.45037 0.942871 8.75193 0.942871 10.1665C0.942871 12.774 2.61492 14.9978 4.94287 15.8233V16.8332C4.94287 17.7023 5.50016 18.4433 6.2762 18.7186V20.1665C6.2762 20.9134 5.66561 21.5443 4.94287 21.5443C4.22013 21.5443 3.60954 20.9134 3.60954 20.1665V19.4122L4.57308 20.0545L5.31266 18.9452L2.2762 16.9209V20.1665C2.2762 21.6285 3.4578 22.8776 4.94287 22.8776C6.42829 22.8776 7.60954 21.6281 7.60954 20.1665V18.7186C8.38558 18.4433 8.94287 17.7023 8.94287 16.8332V15.8233C11.2708 14.9978 12.9429 12.7738 12.9429 10.1665C12.9429 8.75193 12.4505 7.45037 11.6286 6.42363L12.9429 5.1094V0.12207ZM2.2762 1.4554H11.6095V4.55697L10.6858 5.48075C9.65902 4.65888 8.35745 4.16651 6.94287 4.16651C5.52829 4.16651 4.22673 4.65888 3.19999 5.48075L2.2762 4.55697V1.4554ZM7.60954 16.8332C7.60954 17.2007 7.31041 17.4998 6.94287 17.4998C6.57534 17.4998 6.2762 17.2007 6.2762 16.8332V16.1292C6.49513 16.1537 6.71752 16.1665 6.94287 16.1665C7.16822 16.1665 7.39061 16.1537 7.60954 16.1292V16.8332ZM11.5618 9.49985H10.2762V10.8327H11.5618C11.4483 11.6222 11.1368 12.349 10.679 12.9597L9.77134 12.0521L8.82846 12.995L9.7361 13.9026C9.12534 14.3604 8.39895 14.6719 7.60954 14.7854V13.4998H6.2762V14.7854C5.48679 14.6719 4.76041 14.3604 4.14964 13.9026L5.05728 12.995L4.1144 12.0521L3.20676 12.9597C2.74895 12.349 2.43749 11.6226 2.32395 10.8332H3.60954V9.49985H2.32395C2.43749 8.71044 2.74895 7.98405 3.20676 7.37329L4.1144 8.28092L5.05728 7.33804L4.14947 6.4304C4.76041 5.97259 5.48662 5.66113 6.2762 5.54759V6.83318H7.60954V5.54759C8.39895 5.66113 9.12534 5.97259 9.7361 6.4304L8.82846 7.33804L9.77117 8.28092L10.679 7.37329C11.1368 7.98405 11.4483 8.71044 11.5618 9.49985Z" fill="#0E2294"/>
<path d="M6.27618 8.1665H7.60952V10.8332H6.27618V8.1665Z" fill="#0E2294"/>
</svg>
