<svg width="19" height="29" viewBox="0 0 19 29" fill="none" xmlns="http://www.w3.org/2000/svg">
<path d="M18.907 7.77132C18.9662 7.71191 18.9999 7.63164 18.9999 7.54757V6.63173C18.9999 5.64888 18.2464 4.83353 17.2856 4.77538C14.2748 4.59398 10.0291 1.02224 9.9865 0.986214C9.92165 0.931225 9.84216 0.903415 9.75378 0.912264C7.69803 1.08292 6.24381 1.84897 5.43182 3.19145C4.28345 5.08951 4.6993 7.67715 5.15076 9.30279L1.75335 5.44346C1.6834 5.36382 1.57785 5.32274 1.4742 5.33791C1.36929 5.35118 1.27709 5.41565 1.23003 5.50983C1.12321 5.7222 -1.35475 10.7666 1.23003 15.9052C1.29171 16.0266 1.42588 16.0923 1.55941 16.0765L5.52847 15.5127C5.09799 17.151 3.92991 22.5709 6.3004 25.7583C7.44941 27.3056 9.26289 28.0894 11.6874 28.0894H12.0054C15.3691 28.0894 18.9999 25.673 18.9999 21.7688V21.4528C18.9999 19.8846 17.7161 18.6085 16.1385 18.6085C14.5609 18.6085 13.2771 19.8846 13.2771 21.4528C13.2771 21.9761 13.7044 22.4009 14.2309 22.4009C14.7574 22.4009 15.1847 21.9761 15.1847 21.4528C15.1847 20.9301 15.6126 20.5047 16.1385 20.5047C16.6643 20.5047 17.0923 20.9301 17.0923 21.4528V21.7688C17.0923 24.6554 14.1381 26.1932 12.0054 26.1932H11.7574C10.2631 25.9657 9.21202 25.2729 8.82224 24.2812C8.41401 22.751 9.20884 20.7967 11.0433 18.747C11.3937 18.3747 11.7758 17.9986 12.1974 17.6213C12.2445 17.5789 12.2699 17.5239 12.3061 17.4759C12.3831 17.4051 12.4568 17.3343 12.5357 17.2635C14.5685 15.4445 15.4327 13.7259 15.1027 12.1553C14.8152 10.7837 13.6802 9.83056 12.6991 9.24338C17.215 9.38622 18.8326 7.84464 18.907 7.77132Z" fill="#E11423"/>
</svg>
