<?xml version="1.0" encoding="utf-8"?>
<!-- Generator: Adobe Illustrator 25.1.0, SVG Export Plug-In . SVG Version: 6.00 Build 0)  -->
<svg version="1.1" id="Camada_1" xmlns="http://www.w3.org/2000/svg" xmlns:xlink="http://www.w3.org/1999/xlink" x="0px" y="0px"
	 viewBox="0 0 47 50" style="enable-background:new 0 0 47 50;" xml:space="preserve">
<style type="text/css">
	.st0{fill:none;stroke:#0E2294;stroke-width:1.5;stroke-linecap:round;stroke-linejoin:round;}
	.st1{fill:none;stroke:#0E2294;stroke-width:1.5;}
</style>
<path class="st0" d="M28,18.3h5.8c0.5,0,1,0.3,1.2,0.8l2.1,5.4c0.1,0.3,0.2,0.7,0.2,1v7.9c0,0.7-0.6,1.3-1.3,1.3h-2.4"/>
<path class="st0" d="M29.3,34.9H18.9"/>
<path class="st0" d="M37.3,27.7H32v-5.3h4.3"/>
<path class="st0" d="M24.7,15.7h1.9c0.7,0,1.3,0.6,1.3,1.3v12H10.7"/>
<path class="st0" d="M32.9,33.4c0.8,0.8,0.8,2.2,0,3c-0.8,0.8-2.2,0.8-3,0c-0.8-0.8-0.8-2.2,0-3C30.8,32.6,32.1,32.6,32.9,33.4"/>
<path class="st0" d="M18.3,33.4c0.8,0.8,0.8,2.2,0,3c-0.8,0.8-2.2,0.8-3,0c-0.8-0.8-0.8-2.2,0-3C16.1,32.6,17.4,32.6,18.3,33.4"/>
<path class="st0" d="M14.7,34.9H12c-0.7,0-1.3-0.6-1.3-1.3V17c0-0.7,0.6-1.3,1.3-1.3h1.7"/>
<path class="st1" d="M19.2,21.4c-3.1,0-5.5-2.5-5.5-5.5c0-3,2.6-5.5,5.5-5.5c3.1,0,5.5,2.5,5.5,5.5C24.7,18.9,22.3,21.4,19.2,21.4"
	/>
<path class="st0" d="M21.7,14.6l-3.1,3.1l-1.8-1.8"/>
</svg>
