<svg width="29" height="27" viewBox="0 0 29 27" fill="none" xmlns="http://www.w3.org/2000/svg">
<path d="M24.7032 17.7434H13.7727L17.4129 14.1032C19.0657 12.4502 19.0657 9.7606 17.4129 8.10756L16.8134 7.50782L10.1752 14.1458V8.41604C10.1752 4.95274 7.82168 1.92422 4.45222 1.05155L3.39164 0.776855V6.72016C3.39164 7.18763 3.01117 7.5681 2.5437 7.5681H1.69576V18.5938C0.666747 19.3679 -0.00012207 20.599 -0.00012207 21.9831C-0.00012207 24.3209 1.90178 26.2228 4.23958 26.2228H24.7032C27.041 26.2228 28.9429 24.3209 28.9429 21.9831C28.9429 19.6453 27.041 17.7434 24.7032 17.7434ZM16.7105 10.009C17.1609 10.9543 16.9953 12.1225 16.2136 12.9042L11.3744 17.7434H10.1752V16.5443L16.7105 10.009ZM3.39164 9.11868C4.37869 8.76869 5.08752 7.82558 5.08752 6.72016V3.07733C7.1292 4.04363 8.47928 6.10541 8.47928 8.41604V17.7434H6.7834V10.9599H5.08752V17.7434H4.23958C3.9492 17.7434 3.66567 17.7727 3.39164 17.8286V9.11868ZM24.7032 24.5269H4.23958C2.83694 24.5269 1.69576 23.3857 1.69576 21.9831C1.69576 20.5804 2.83694 19.4393 4.23958 19.4393H24.7032C26.1058 19.4393 27.247 20.5804 27.247 21.9831C27.247 23.3857 26.1058 24.5269 24.7032 24.5269Z" fill="#1534C8"/>
<path d="M5.08752 21.1353H6.7834V22.8311H5.08752V21.1353Z" fill="#1534C8"/>
<path d="M8.47925 21.1353H20.4635V22.8311H8.47925V21.1353Z" fill="#1534C8"/>
<path d="M22.1594 21.1353H23.8553V22.8311H22.1594V21.1353Z" fill="#1534C8"/>
</svg>
