<?xml version="1.0" encoding="UTF-8"?><!DOCTYPE svg PUBLIC "-//W3C//DTD SVG 1.1//EN" "http://www.w3.org/Graphics/SVG/1.1/DTD/svg11.dtd"><svg xmlns="http://www.w3.org/2000/svg"><symbol id="arrow" viewBox="0 0 24 24"><path d="M8 10l4 4 4-4" stroke-linecap="round" stroke-linejoin="round"/></symbol><symbol id="attendance" viewBox="0 0 24 24"><path fill-rule="evenodd" clip-rule="evenodd" d="M14 20h5a2 2 0 0 0 2-2V6a2 2 0 0 0-2-2H5a2 2 0 0 0-2 2v12a2 2 0 0 0 2 2h5l2 2 2-2z" stroke-linecap="round" stroke-linejoin="round"/><path d="M15.884 13.684a5.575 5.575 0 0 1-7.884 0M10 8.684v1M14 8.684v1" stroke-linecap="round" stroke-linejoin="round"/></symbol><symbol id="cart" viewBox="0 0 30 30"><path d="M7.461 8.281l-.833-3.75H4.216" stroke-linecap="round" stroke-linejoin="round"/><path fill-rule="evenodd" clip-rule="evenodd" d="M9.664 18.544L7.46 8.28h15.823a1.25 1.25 0 0 1 1.222 1.513l-1.877 8.75a1.25 1.25 0 0 1-1.223.987H10.885a1.25 1.25 0 0 1-1.221-.987z" stroke-linecap="round" stroke-linejoin="round"/><path d="M21.831 24.063a.469.469 0 1 0 .471.469.471.471 0 0 0-.47-.47M11.07 24.063a.465.465 0 0 0-.466.468.467.467 0 1 0 .936 0 .47.47 0 0 0-.47-.468" stroke-linecap="round" stroke-linejoin="round"/></symbol><symbol id="clothes" viewBox="0 0 22 27"><path d="M21.412 5.131L22 5.007v-.622C22 2.243 20.322.5 18.26.5h-3.164c-.11.08-1.482 1.893-4.096 1.893S7.014.579 6.904.5H3.74C1.678.5 0 2.243 0 4.385v.622l.587.124c1.36.287 2.346 1.542 2.346 2.986 0 1.48-1.006 2.803-2.341 3.076l-.592.12V26.5h22V11.329l-.59-.122c-1.336-.276-2.343-1.604-2.343-3.09 0-1.444.986-2.7 2.345-2.986zM11 3.916c1.175 0 2.306-.3 3.31-.866L13.2 8.855v15.36c0 .267.045.523.126.762H8.674c.081-.239.126-.495.126-.762V8.855L7.69 3.05a6.717 6.717 0 0 0 3.31.866zm3.666 16.49H17.6v1.524h-2.934v-1.524zm2.934-1.523h-2.934v-1.524H17.6v1.524zm-10.267 0H4.4v-1.524h2.933v1.524zM4.4 20.406h2.933v1.524H4.4v-1.524zm-2.933 4.57V12.518c1.708-.639 2.933-2.426 2.933-4.4 0-1.927-1.173-3.632-2.87-4.286.24-1.036 1.14-1.808 2.21-1.808h2.258l1.335 6.982v3.784H3.667v1.524h3.666v1.523h-4.4v7.617h4.4v.762c0 .42-.329.762-.733.762H1.467zm17.128-13.904a4.389 4.389 0 0 0 1.938 1.459v12.446H15.4c-.404 0-.734-.342-.734-.762v-.762h4.4v-7.617h-4.4v-1.524h3.667V12.79h-3.666V9.005l1.335-6.982h2.258c1.07 0 1.97.772 2.21 1.808-1.697.654-2.87 2.359-2.87 4.286 0 1.065.353 2.115.995 2.955z"/></symbol><symbol id="dealer" viewBox="0 0 47 50"><path class="st0" d="M28.3 37H17.7C14 37 11 34 11 30.3V19.7c0-3.7 3-6.7 6.7-6.7h10.7c3.7 0 6.7 3 6.7 6.7v10.7C35 34 32 37 28.3 37z"/><path class="st0" d="M26 23.7l-3.8 3.8-2.2-2.3"/></symbol><symbol id="fishing" viewBox="0 0 28 27"><path d="M3.623 18.726l.27 1.348 1.552-.31-.85-4.249L1.87 18.24a3.164 3.164 0 0 0 0 4.477 3.145 3.145 0 0 0 2.438.92c-.054.875.252 1.77.92 2.437a3.169 3.169 0 0 0 4.476 0l2.724-2.724-4.248-.85-.31 1.552 1.348.27-.633.633a1.584 1.584 0 0 1-2.239 0 1.585 1.585 0 0 1 0-2.238l3.418-3.418c2.826 1.824 7.054-.34 9.452-2.738 2.124-2.124 3.986-5.498 3.242-8.3a2.378 2.378 0 0 0 1.698-3.356l3.786-3.786L26.823 0 23.04 3.785a2.365 2.365 0 0 0-1.024-.231c-.634 0-1.23.247-1.678.695a2.36 2.36 0 0 0-.653 1.235c-2.816-.747-6.192 1.134-8.3 3.242-2.398 2.398-4.562 6.627-2.738 9.454l-3.418 3.418a1.582 1.582 0 1 1-2.238-2.239l.633-.633zm6.641-1.046c-.649-.649-.832-1.677-.616-2.854l3.47 3.47c-1.226.222-2.23.009-2.854-.616zM21.456 5.369a.79.79 0 1 1 1.119 1.117.79.79 0 0 1-1.12-1.117zm-1.12 2.238c.625.625.838 1.628.616 2.854l-3.47-3.47c1.014-.186 2.129-.11 2.855.616zm-7.833 2.238c1.025-1.026 2.172-1.81 3.285-2.31l4.624 4.625c-.508 1.138-1.302 2.27-2.314 3.282-1.011 1.011-2.143 1.805-3.281 2.314l-4.625-4.625c.5-1.113 1.285-2.26 2.31-3.286z"/></symbol><symbol id="nautical" viewBox="0 0 36 13"><path d="M.463 5.928C1.87 10.158 5.791 13 10.219 13h23.662V8.768H36V2.42h-6.335v2.115h-6.406V.304h-2.112v4.231h-4.913L11.708 0l-6.79 4.535H0l.463 1.393zm31.313-1.393h2.112v2.117h-2.112V4.535zM11.44 2.723l1.809 1.813H8.725l2.714-1.813zM29.665 6.65v2.117h2.104v2.116H10.22A8.159 8.159 0 0 1 3.076 6.65h26.589z"/></symbol><symbol id="off" viewBox="0 0 47 50"><style>.st0{fill:none;stroke:#0e2294;stroke-width:1.5;stroke-linecap:round;stroke-linejoin:round}</style><path class="st0" d="M20.2 27.8l5.6-5.6M26.1 27.6c.1.1.1.3 0 .5-.1.1-.3.1-.5 0-.1-.1-.1-.3 0-.5.1-.1.3-.1.5 0M20.4 21.9c.1.1.1.3 0 .5-.1.1-.3.1-.5 0-.1-.1-.1-.3 0-.5.2-.1.4-.1.5 0"/><path class="st0" d="M12.3 15.4V35c0 1 1 1.6 1.9 1.2l1-.5c.4-.2.8-.2 1.2 0l2.4 1.2c.4.2.8.2 1.2 0l2.4-1.2c.4-.2.8-.2 1.2 0l2.4 1.2c.4.2.8.2 1.2 0l2.4-1.2c.4-.2.8-.2 1.2 0l1 .5c.9.4 1.9-.2 1.9-1.2V15.4c0-1.3-1.1-2.4-2.4-2.4H14.7c-1.3 0-2.4 1.1-2.4 2.4z"/></symbol><symbol id="parts" viewBox="0 0 13 23"><path d="M12.943.122h-12V5.11l1.314 1.315a5.97 5.97 0 0 0-1.314 3.742 6.01 6.01 0 0 0 4 5.657v1.01c0 .87.557 1.61 1.333 1.886v1.447c0 .747-.61 1.378-1.333 1.378s-1.333-.63-1.333-1.378v-.754l.963.643.74-1.11-3.037-2.024v3.245c0 1.462 1.182 2.712 2.667 2.712 1.485 0 2.667-1.25 2.667-2.712V18.72a2.003 2.003 0 0 0 1.333-1.886v-1.01a6.01 6.01 0 0 0 4-5.657 5.97 5.97 0 0 0-1.314-3.742l1.314-1.315V.122zM2.276 1.455h9.334v3.102l-.924.924a5.97 5.97 0 0 0-3.743-1.314A5.97 5.97 0 0 0 3.2 5.48l-.924-.924V1.455zM7.61 16.833a.667.667 0 0 1-1.334 0v-.704a5.992 5.992 0 0 0 1.334 0v.704zM11.562 9.5h-1.286v1.333h1.286a4.645 4.645 0 0 1-.883 2.127l-.908-.908-.943.943.908.908c-.61.457-1.337.769-2.126.882V13.5H6.276v1.285a4.644 4.644 0 0 1-2.126-.882l.907-.908-.943-.943-.907.908a4.644 4.644 0 0 1-.883-2.127H3.61V9.5H2.324c.113-.79.425-1.516.883-2.127l.907.908.943-.943-.908-.908a4.645 4.645 0 0 1 2.127-.882v1.285H7.61V5.548c.789.113 1.515.425 2.126.882l-.908.908.943.943.908-.908c.458.611.77 1.337.883 2.127z"/><path d="M6.276 8.166H7.61v2.667H6.276V8.166z"/></symbol><symbol id="payment" viewBox="0 0 24 25"><path d="M3 9.442h18M9.57 13.442H7" stroke="#1534C8" stroke-width="1.5" stroke-linecap="round" stroke-linejoin="round"/><path fill-rule="evenodd" clip-rule="evenodd" d="M18 19.442H6a3 3 0 0 1-3-3v-8a3 3 0 0 1 3-3h12a3 3 0 0 1 3 3v8a3 3 0 0 1-3 3z" stroke="#1534C8" stroke-width="1.5" stroke-linecap="round" stroke-linejoin="round"/></symbol><symbol id="ph" viewBox="0 0 19 29"><path d="M18.907 7.771c.06-.06.093-.14.093-.223v-.916c0-.983-.754-1.798-1.714-1.857-3.011-.181-7.257-3.753-7.3-3.789a.305.305 0 0 0-.232-.074c-2.056.17-3.51.937-4.322 2.28-1.149 1.898-.733 4.485-.281 6.11L1.753 5.444a.318.318 0 0 0-.523.066c-.107.213-2.585 5.258 0 10.396a.326.326 0 0 0 .33.171l3.968-.563c-.43 1.638-1.598 7.058.772 10.245 1.15 1.548 2.963 2.331 5.387 2.331h.318c3.364 0 6.995-2.416 6.995-6.32v-.316a2.856 2.856 0 0 0-2.861-2.845 2.856 2.856 0 0 0-2.862 2.845c0 .523.427.948.954.948a.951.951 0 0 0 .954-.948c0-.523.428-.948.954-.948.525 0 .953.425.953.948v.316c0 2.886-2.954 4.424-5.087 4.424h-.248c-1.494-.227-2.545-.92-2.935-1.912-.408-1.53.387-3.484 2.221-5.534.35-.372.733-.748 1.154-1.126.048-.042.073-.097.11-.145.076-.07.15-.142.229-.212 2.033-1.82 2.897-3.538 2.567-5.109-.288-1.371-1.423-2.324-2.404-2.912 4.516.143 6.134-1.398 6.208-1.472z"/></symbol><symbol id="search" viewBox="0 0 30 30"><path d="M19.642 8.548A7.845 7.845 0 1 1 8.548 19.642 7.845 7.845 0 0 1 19.642 8.548M23.75 23.75l-4.113-4.112" stroke-linecap="round" stroke-linejoin="round"/></symbol><symbol id="shipping" viewBox="0 0 47 50"><style>.st0{stroke-linecap:round;stroke-linejoin:round}.st0,.st1{fill:none;stroke:#0e2294;stroke-width:1.5}</style><path class="st0" d="M28 18.3h5.8c.5 0 1 .3 1.2.8l2.1 5.4c.1.3.2.7.2 1v7.9c0 .7-.6 1.3-1.3 1.3h-2.4M29.3 34.9H18.9"/><path class="st0" d="M37.3 27.7H32v-5.3h4.3M24.7 15.7h1.9c.7 0 1.3.6 1.3 1.3v12H10.7M32.9 33.4c.8.8.8 2.2 0 3-.8.8-2.2.8-3 0-.8-.8-.8-2.2 0-3 .9-.8 2.2-.8 3 0M18.3 33.4c.8.8.8 2.2 0 3-.8.8-2.2.8-3 0-.8-.8-.8-2.2 0-3 .8-.8 2.1-.8 3 0"/><path class="st0" d="M14.7 34.9H12c-.7 0-1.3-.6-1.3-1.3V17c0-.7.6-1.3 1.3-1.3h1.7"/><path class="st1" d="M19.2 21.4c-3.1 0-5.5-2.5-5.5-5.5s2.6-5.5 5.5-5.5c3.1 0 5.5 2.5 5.5 5.5s-2.4 5.5-5.5 5.5"/><path class="st0" d="M21.7 14.6l-3.1 3.1-1.8-1.8"/></symbol><symbol id="user" viewBox="0 0 24 24"><path d="M5 20c0-2.5 2-4.4 4.4-4.4h5.1c2.5 0 4.4 2 4.4 4.4M15 5.2c1.7 1.7 1.7 4.4 0 6-1.7 1.6-4.4 1.7-6 0-1.6-1.7-1.7-4.4 0-6 1.7-1.6 4.3-1.6 6 0" stroke-linecap="round" stroke-linejoin="round"/></symbol><symbol id="utensils" viewBox="0 0 29 27"><path d="M24.703 17.743h-10.93l3.64-3.64a4.245 4.245 0 0 0 0-5.995l-.6-.6-6.638 6.638v-5.73c0-3.463-2.353-6.492-5.723-7.364L3.392.777V6.72c0 .468-.38.848-.848.848h-.848v11.026A4.235 4.235 0 0 0 0 21.984a4.244 4.244 0 0 0 4.24 4.239h20.463a4.244 4.244 0 0 0 4.24-4.24 4.244 4.244 0 0 0-4.24-4.24zm-7.992-7.734c.45.945.284 2.114-.497 2.895l-4.84 4.84h-1.199v-1.2l6.535-6.535zm-13.32-.89A2.548 2.548 0 0 0 5.089 6.72V3.077a5.914 5.914 0 0 1 3.391 5.339v9.327H6.783V10.96H5.088v6.783H4.24c-.29 0-.574.03-.848.086v-8.71zm21.312 15.408H4.24a2.547 2.547 0 0 1-2.544-2.544A2.547 2.547 0 0 1 4.24 19.44h20.463a2.547 2.547 0 0 1 2.544 2.544 2.547 2.547 0 0 1-2.544 2.544z"/><path d="M5.088 21.135h1.695v1.696H5.088v-1.696zM8.48 21.135h11.983v1.696H8.48v-1.696zM22.16 21.135h1.695v1.696H22.16v-1.696z"/></symbol></svg>